<?xml version="1.0" encoding="UTF-8" standalone="no"?>
<svg
   xmlns:dc="http://purl.org/dc/elements/1.1/"
   xmlns:cc="http://creativecommons.org/ns#"
   xmlns:rdf="http://www.w3.org/1999/02/22-rdf-syntax-ns#"
   xmlns:svg="http://www.w3.org/2000/svg"
   xmlns="http://www.w3.org/2000/svg"
   xmlns:sodipodi="http://sodipodi.sourceforge.net/DTD/sodipodi-0.dtd"
   xmlns:inkscape="http://www.inkscape.org/namespaces/inkscape"
   width="26.968599mm"
   height="30.000008mm"
   viewBox="0 0 26.968597 30.000006"
   version="1.1"
   id="svg8"
   inkscape:version="1.0.2 (e86c8708, 2021-01-15)"
   sodipodi:docname="roadmap3.svg">
  <defs
     id="defs2">
    <marker
       style="overflow:visible"
       id="TriangleOutL"
       refX="0"
       refY="0"
       orient="auto"
       inkscape:stockid="TriangleOutL"
       inkscape:isstock="true">
      <path
         transform="scale(0.8)"
         style="fill:#ffffff;fill-opacity:1;fill-rule:evenodd;stroke:#ffffff;stroke-width:1pt;stroke-opacity:1"
         d="M 5.77,0 -2.88,5 V -5 Z"
         id="path1132" />
    </marker>
    <marker
       style="overflow:visible"
       id="TriangleOutM"
       refX="0"
       refY="0"
       orient="auto"
       inkscape:stockid="TriangleOutM"
       inkscape:isstock="true">
      <path
         transform="scale(0.4)"
         style="fill:#ffffff;fill-opacity:1;fill-rule:evenodd;stroke:#ffffff;stroke-width:1pt;stroke-opacity:1"
         d="M 5.77,0 -2.88,5 V -5 Z"
         id="path1135" />
    </marker>
    <marker
       style="overflow:visible"
       id="TriangleOutS"
       refX="0"
       refY="0"
       orient="auto"
       inkscape:stockid="TriangleOutS"
       inkscape:isstock="true">
      <path
         transform="scale(0.2)"
         style="fill:#ffffff;fill-opacity:1;fill-rule:evenodd;stroke:#ffffff;stroke-width:1pt;stroke-opacity:1"
         d="M 5.77,0 -2.88,5 V -5 Z"
         id="path1361" />
    </marker>
    <clipPath
       clipPathUnits="userSpaceOnUse"
       id="clipPath945">
      <rect
         style="fill:#487ed6;fill-opacity:1;stroke:#ffffff;stroke-width:3.74999;stroke-miterlimit:4;stroke-dasharray:none;stroke-dashoffset:0;stroke-opacity:1"
         id="rect947"
         width="45.357143"
         height="97.139877"
         x="111.88095"
         y="129.26785" />
    </clipPath>
    <clipPath
       clipPathUnits="userSpaceOnUse"
       id="clipPath945-9">
      <rect
         style="fill:#487ed6;fill-opacity:1;stroke:#ffffff;stroke-width:3.74999;stroke-miterlimit:4;stroke-dasharray:none;stroke-dashoffset:0;stroke-opacity:1"
         id="rect947-4"
         width="45.357143"
         height="97.139877"
         x="111.88095"
         y="129.26785" />
    </clipPath>
    <marker
       style="overflow:visible"
       id="TriangleOutS-1"
       refX="0"
       refY="0"
       orient="auto"
       inkscape:stockid="TriangleOutS"
       inkscape:isstock="true">
      <path
         transform="scale(0.2)"
         style="fill:#ffffff;fill-opacity:1;fill-rule:evenodd;stroke:#ffffff;stroke-width:1pt;stroke-opacity:1"
         d="M 5.77,0 -2.88,5 V -5 Z"
         id="path1361-8" />
    </marker>
    <clipPath
       clipPathUnits="userSpaceOnUse"
       id="clipPath945-3">
      <rect
         style="fill:#487ed6;fill-opacity:1;stroke:#ffffff;stroke-width:3.74999;stroke-miterlimit:4;stroke-dasharray:none;stroke-dashoffset:0;stroke-opacity:1"
         id="rect947-8"
         width="45.357143"
         height="97.139877"
         x="111.88095"
         y="129.26785" />
    </clipPath>
    <marker
       style="overflow:visible"
       id="TriangleOutS-6"
       refX="0"
       refY="0"
       orient="auto"
       inkscape:stockid="TriangleOutS"
       inkscape:isstock="true">
      <path
         transform="scale(0.2)"
         style="fill:#ffffff;fill-opacity:1;fill-rule:evenodd;stroke:#ffffff;stroke-width:1pt;stroke-opacity:1"
         d="M 5.77,0 -2.88,5 V -5 Z"
         id="path1361-4" />
    </marker>
    <marker
       style="overflow:visible"
       id="TriangleOutS-1-6"
       refX="0"
       refY="0"
       orient="auto"
       inkscape:stockid="TriangleOutS"
       inkscape:isstock="true">
      <path
         transform="scale(0.2)"
         style="fill:#ffffff;fill-opacity:1;fill-rule:evenodd;stroke:#ffffff;stroke-width:1pt;stroke-opacity:1"
         d="M 5.77,0 -2.88,5 V -5 Z"
         id="path1361-8-2" />
    </marker>
    <marker
       style="overflow:visible"
       id="TriangleOutS-1-6-4"
       refX="0"
       refY="0"
       orient="auto"
       inkscape:stockid="TriangleOutS"
       inkscape:isstock="true">
      <path
         transform="scale(0.2)"
         style="fill:#ffffff;fill-opacity:1;fill-rule:evenodd;stroke:#ffffff;stroke-width:1pt;stroke-opacity:1"
         d="M 5.77,0 -2.88,5 V -5 Z"
         id="path1361-8-2-8" />
    </marker>
  </defs>
  <sodipodi:namedview
     id="base"
     pagecolor="#487ed6"
     bordercolor="#666666"
     borderopacity="1.0"
     inkscape:pageopacity="1"
     inkscape:pageshadow="2"
     inkscape:zoom="1.28"
     inkscape:cx="-161.22481"
     inkscape:cy="110.62739"
     inkscape:document-units="mm"
     inkscape:current-layer="layer1"
     inkscape:document-rotation="0"
     showgrid="false"
     inkscape:pagecheckerboard="false"
     inkscape:window-width="1440"
     inkscape:window-height="812"
     inkscape:window-x="1280"
     inkscape:window-y="23"
     inkscape:window-maximized="0"
     showguides="true"
     inkscape:guide-bbox="true" />
  <metadata
     id="metadata5">
    <rdf:RDF>
      <cc:Work
         rdf:about="">
        <dc:format>image/svg+xml</dc:format>
        <dc:type
           rdf:resource="http://purl.org/dc/dcmitype/StillImage" />
        <dc:title />
      </cc:Work>
    </rdf:RDF>
  </metadata>
  <g
     inkscape:label="Layer 1"
     inkscape:groupmode="layer"
     id="layer1"
     transform="translate(-114.66362,-88.592542)">
    <g
       id="g4691"
       transform="matrix(0.04964598,0,0,0.04964598,74.442586,87.480541)" />
    <g
       id="g7404"
       transform="matrix(1,0,0,0.97772419,0.91958896,2.2825612)" />
    <path
       d="m 141.55324,93.23436 c -0.62459,-2.34 -5.2734,-4.641818 -13.40547,-4.641818 -8.13205,0 -12.78141,2.301818 -13.40545,4.641818 -0.0453,0.08017 -0.0787,0.167996 -0.0787,0.267273 v 0.272727 6.27273 0.27272 0.27274 5.99998 0.27273 0.27274 6.54546 c 0,0.0885 0.0232,0.17172 0.0632,0.24598 0.63699,2.67001 6.33596,4.66311 13.42111,4.66311 7.06894,0 12.75874,-1.98491 13.41679,-4.64511 0.0432,-0.078 0.0675,-0.16802 0.0675,-0.26398 v -6.54546 -0.27274 -0.27273 -5.99998 -0.27274 -0.27272 -6.27273 -0.272727 c 0,-0.09926 -0.0334,-0.187087 -0.0787,-0.267273 z m -1.0426,13.89546 c -0.0143,0.066 -0.0361,0.13152 -0.0626,0.19791 -0.0216,0.054 -0.0481,0.10803 -0.0771,0.16203 -0.0361,0.067 -0.0767,0.13421 -0.12456,0.20121 -0.0357,0.0507 -0.076,0.10082 -0.11803,0.15111 -0.0599,0.0715 -0.12354,0.14288 -0.1957,0.21381 -0.0436,0.043 -0.0917,0.0856 -0.14025,0.12864 -0.0885,0.0779 -0.18062,0.15544 -0.28371,0.23238 -0.0442,0.0332 -0.0917,0.0655 -0.13862,0.0982 -0.12191,0.0852 -0.2492,0.16967 -0.3889,0.25254 -0.0367,0.0225 -0.076,0.0437 -0.11436,0.0656 -0.16084,0.0916 -0.32847,0.18266 -0.5097,0.27109 -0.0232,0.0124 -0.0475,0.0223 -0.0712,0.0332 -0.20222,0.0965 -0.41368,0.19152 -0.63968,0.28307 -0.006,0.002 -0.0122,0.004 -0.0204,0.008 -1.22491,0.49473 -2.79179,0.91093 -4.61754,1.18365 -0.008,10e-4 -0.0183,0.002 -0.0275,0.004 -0.35491,0.053 -0.71898,0.0998 -1.09277,0.14121 -0.0609,0.006 -0.12516,0.0103 -0.18653,0.0165 -0.32631,0.0345 -0.65641,0.066 -0.9962,0.0912 -0.15534,0.0124 -0.31824,0.0165 -0.47627,0.0268 -0.25565,0.0145 -0.50862,0.0322 -0.77075,0.0414 -0.42826,0.0145 -0.86515,0.0223 -1.3112,0.0223 -0.44606,0 -0.88294,-0.008 -1.31175,-0.0239 -0.26214,-0.008 -0.51511,-0.0268 -0.77076,-0.0414 -0.15799,-0.0103 -0.32093,-0.0144 -0.47627,-0.0268 -0.33979,-0.0252 -0.66989,-0.0567 -0.9962,-0.0912 -0.0616,-0.006 -0.12578,-0.0103 -0.18653,-0.0165 -0.37379,-0.0414 -0.73786,-0.0889 -1.09277,-0.14123 -0.0102,-10e-4 -0.0183,-0.002 -0.0275,-0.004 -1.82575,-0.27273 -3.39263,-0.68892 -4.61752,-1.18366 -0.006,-0.002 -0.0122,-0.004 -0.0204,-0.008 -0.226,-0.0916 -0.43799,-0.18657 -0.6397,-0.28309 -0.0232,-0.0124 -0.0481,-0.0225 -0.0712,-0.0332 -0.18122,-0.0885 -0.34898,-0.17895 -0.5097,-0.27108 -0.0377,-0.0219 -0.0777,-0.043 -0.11436,-0.0656 -0.13964,-0.0829 -0.26699,-0.16739 -0.3889,-0.25256 -0.0465,-0.0328 -0.0944,-0.0649 -0.13862,-0.0982 -0.10294,-0.0769 -0.19529,-0.15441 -0.2837,-0.23235 -0.0479,-0.0424 -0.0966,-0.0852 -0.14026,-0.12865 -0.0722,-0.0709 -0.13597,-0.14183 -0.1957,-0.21381 -0.042,-0.0501 -0.0826,-0.10039 -0.11803,-0.15111 -0.0475,-0.067 -0.0879,-0.1342 -0.12456,-0.2012 -0.0292,-0.054 -0.055,-0.10803 -0.077,-0.16205 -0.0265,-0.066 -0.0475,-0.13193 -0.0626,-0.1979 -0.0204,-0.0868 -0.042,-0.17503 -0.042,-0.26291 0,-0.0616 0.006,-0.12328 0.0163,-0.1843 0.0143,-0.0823 0.006,-0.16472 -0.0163,-0.24274 v -4.04945 c 0.0143,0.0144 0.034,0.0279 0.0495,0.042 0.11762,0.10473 0.23732,0.20892 0.37215,0.30928 2.03181,1.554 6.09488,2.76162 11.9837,2.76162 5.86402,0 9.91683,-1.19781 11.95724,-2.74253 0.16288,-0.11999 0.30962,-0.24382 0.44769,-0.36982 l 5.3e-4,-5.4e-4 v 4.04943 c -0.0226,0.0779 -0.0302,0.16039 -0.0163,0.24274 0.0102,0.061 0.0163,0.12265 0.0163,0.1843 0,0.0878 -0.022,0.17626 -0.0426,0.26456 z m 0.0426,-11.286552 v 4.049459 c -0.0226,0.078 -0.0302,0.160403 -0.0163,0.242723 0.0102,0.061 0.0163,0.12266 0.0163,0.1843 0,0.0879 -0.0222,0.17626 -0.0426,0.26456 -0.0143,0.066 -0.0361,0.13153 -0.0626,0.19791 -0.0216,0.054 -0.0481,0.10802 -0.0771,0.16203 -0.0361,0.067 -0.0767,0.13421 -0.12456,0.20122 -0.0357,0.0507 -0.076,0.10102 -0.11803,0.15111 -0.0599,0.0715 -0.12354,0.14286 -0.1957,0.21381 -0.0436,0.043 -0.0917,0.0856 -0.14025,0.12863 -0.0885,0.0779 -0.18062,0.15545 -0.28371,0.23238 -0.0442,0.0331 -0.0917,0.0653 -0.13862,0.0982 -0.12191,0.0852 -0.2492,0.16967 -0.3889,0.25254 -0.0367,0.0223 -0.076,0.0437 -0.11436,0.0656 -0.16084,0.0916 -0.32847,0.18265 -0.5097,0.27109 -0.0232,0.0124 -0.0475,0.0225 -0.0712,0.0331 -0.20222,0.0965 -0.41368,0.19152 -0.63968,0.28307 -0.006,0.002 -0.0122,0.004 -0.0204,0.008 -1.22491,0.49473 -2.79179,0.91092 -4.61754,1.18365 -0.008,0.001 -0.0183,0.002 -0.0275,0.004 -0.35491,0.053 -0.71898,0.0998 -1.09277,0.14122 -0.0609,0.006 -0.12516,0.0103 -0.18653,0.0165 -0.32631,0.0344 -0.65641,0.066 -0.9962,0.0912 -0.15534,0.0124 -0.31824,0.0165 -0.47627,0.0268 -0.25565,0.0145 -0.50862,0.0322 -0.77075,0.0414 -0.42826,0.0145 -0.86515,0.0225 -1.3112,0.0225 -0.44606,0 -0.88294,-0.008 -1.31175,-0.0239 -0.26214,-0.008 -0.51511,-0.0268 -0.77076,-0.0414 -0.15799,-0.008 -0.32093,-0.0144 -0.47627,-0.0268 -0.33979,-0.0252 -0.66989,-0.0567 -0.9962,-0.0912 -0.0616,-0.006 -0.12578,-0.0103 -0.18653,-0.0186 -0.37379,-0.0414 -0.73786,-0.0889 -1.09277,-0.14122 -0.0102,-0.001 -0.0183,-0.002 -0.0275,-0.004 -1.82575,-0.27273 -3.39263,-0.68892 -4.61752,-1.18365 -0.006,-0.002 -0.0122,-0.004 -0.0204,-0.008 -0.226,-0.0916 -0.43799,-0.18657 -0.6397,-0.28309 -0.0232,-0.0124 -0.0481,-0.0225 -0.0712,-0.0332 -0.18122,-0.0885 -0.34898,-0.17894 -0.5097,-0.27107 -0.0377,-0.0219 -0.0777,-0.043 -0.11436,-0.0656 -0.13964,-0.0829 -0.26699,-0.1674 -0.3889,-0.25256 -0.0465,-0.0327 -0.0944,-0.0649 -0.13862,-0.0982 -0.10294,-0.0769 -0.19529,-0.15441 -0.2837,-0.23236 -0.0479,-0.0424 -0.0966,-0.0852 -0.14026,-0.12864 -0.0722,-0.0709 -0.13597,-0.14183 -0.1957,-0.21381 -0.042,-0.0501 -0.0826,-0.10039 -0.11803,-0.15111 -0.0475,-0.067 -0.0879,-0.1342 -0.12456,-0.20121 -0.0292,-0.054 -0.055,-0.10803 -0.077,-0.16204 -0.0265,-0.066 -0.0475,-0.13194 -0.0626,-0.19791 -0.0204,-0.0868 -0.042,-0.17502 -0.042,-0.26291 0,-0.0616 0.006,-0.12327 0.0163,-0.1843 0.0143,-0.0825 0.006,-0.164723 -0.0163,-0.242723 v -4.04947 c 0.0648,0.05945 0.13862,0.117817 0.20875,0.176736 0.0387,0.03272 0.075,0.06545 0.11599,0.09817 0.16186,0.128724 0.33657,0.255819 0.52589,0.379633 0.0393,0.02556 0.0836,0.05071 0.12455,0.07627 0.1586,0.09978 0.32632,0.197498 0.50269,0.293464 0.0652,0.03546 0.13047,0.07029 0.19794,0.105345 0.19693,0.101429 0.40346,0.200178 0.62081,0.295628 0.0357,0.01649 0.0679,0.03216 0.10417,0.04742 0.25296,0.108438 0.52156,0.212196 0.80097,0.312553 0.077,0.02783 0.15798,0.05401 0.23733,0.08123 0.2222,0.07586 0.45198,0.148433 0.68984,0.218711 0.0858,0.02515 0.16982,0.05133 0.25782,0.07525 0.31553,0.08844 0.64131,0.172346 0.98326,0.249819 0.0469,0.0103 0.0976,0.02062 0.14514,0.0299 0.30153,0.06659 0.61434,0.128229 0.93582,0.185952 0.10886,0.02062 0.21951,0.03814 0.33064,0.05669 0.3058,0.05071 0.6208,0.0971 0.94389,0.139567 0.0832,0.0103 0.16227,0.0235 0.24648,0.03381 0.40129,0.04906 0.81661,0.09112 1.24326,0.127198 0.10519,0.0083 0.21466,0.01443 0.32146,0.02289 0.34141,0.02515 0.69037,0.04576 1.04745,0.06225 0.13006,0.0062 0.25942,0.01237 0.39211,0.0165 0.46494,0.01649 0.93851,0.02721 1.42934,0.02721 0.49082,0 0.96438,-0.01237 1.42931,-0.02721 0.1321,-0.0041 0.26159,-0.01031 0.39212,-0.0165 0.35707,-0.0165 0.70603,-0.0371 1.04745,-0.06225 0.10682,-0.0083 0.21576,-0.01443 0.32148,-0.02289 0.42663,-0.03546 0.84195,-0.07792 1.24324,-0.127198 0.0842,-0.01031 0.16349,-0.02289 0.2465,-0.03381 0.32307,-0.04247 0.63752,-0.08886 0.94389,-0.139567 0.1111,-0.01855 0.22167,-0.03711 0.33063,-0.05669 0.32146,-0.05793 0.6343,-0.119364 0.9358,-0.185952 0.0475,-0.01031 0.0983,-0.02062 0.14515,-0.0299 0.34195,-0.07751 0.66773,-0.162038 0.98326,-0.249819 0.0879,-0.02453 0.17205,-0.05009 0.25781,-0.07525 0.23788,-0.0703 0.46765,-0.142866 0.68987,-0.218711 0.0793,-0.02721 0.16023,-0.0534 0.23731,-0.08123 0.2794,-0.100398 0.54853,-0.204094 0.80097,-0.312553 0.0361,-0.01443 0.0685,-0.03154 0.10417,-0.04742 0.21737,-0.09606 0.42394,-0.194199 0.62082,-0.295628 0.0675,-0.03484 0.13312,-0.06988 0.19795,-0.105345 0.17633,-0.09546 0.3441,-0.193169 0.50268,-0.293464 0.041,-0.02556 0.0852,-0.05071 0.12456,-0.07627 0.18938,-0.123818 0.36407,-0.250361 0.52589,-0.379633 0.0404,-0.03274 0.0767,-0.06545 0.11599,-0.09817 0.0701,-0.05892 0.14392,-0.117281 0.20873,-0.176736 z m -12.40547,-6.159817 c 7.31114,0 12.40547,2.155636 12.40547,4.090909 0,1.935272 -5.09433,4.090907 -12.40547,4.090907 -7.31115,0 -12.40548,-2.155635 -12.40548,-4.090907 0,-1.935273 5.09433,-4.090909 12.40548,-4.090909 z m 12.40547,23.837979 c -0.008,0.0239 -0.0122,0.0486 -0.0183,0.0736 -0.30583,1.88675 -5.357,3.90655 -12.38821,3.90655 -7.03121,0 -12.08239,-2.0198 -12.38821,-3.90655 -0.004,-0.0246 -0.0102,-0.0486 -0.0163,-0.0715 v -4.58945 c 0.0143,0.0145 0.034,0.0279 0.0495,0.042 0.11763,0.10473 0.23731,0.20892 0.37216,0.30927 2.03181,1.55401 6.09486,2.76163 11.98368,2.76163 5.86402,0 9.91683,-1.19781 11.95726,-2.74254 0.16288,-0.11998 0.3096,-0.24382 0.44769,-0.36982 l 5.3e-4,-5.4e-4 z"
       id="path7406"
       style="fill:#333333;stroke-width:0.542402" />
    <g
       id="g7408"
       transform="matrix(0.53936829,0,0,0.54627932,113.31514,89.185499)"
       style="fill:#ffffff" />
    <g
       id="g7410"
       transform="matrix(0.53936829,0,0,0.54627932,113.31514,89.185499)"
       style="fill:#ffffff" />
    <g
       id="g7412"
       transform="matrix(0.53936829,0,0,0.54627932,113.31514,89.185499)"
       style="fill:#ffffff" />
    <g
       id="g7414"
       transform="matrix(0.53936829,0,0,0.54627932,113.31514,89.185499)"
       style="fill:#ffffff" />
    <g
       id="g7416"
       transform="matrix(0.53936829,0,0,0.54627932,113.31514,89.185499)"
       style="fill:#ffffff" />
    <g
       id="g7418"
       transform="matrix(0.53936829,0,0,0.54627932,113.31514,89.185499)"
       style="fill:#ffffff" />
    <g
       id="g7420"
       transform="matrix(0.53936829,0,0,0.54627932,113.31514,89.185499)"
       style="fill:#ffffff" />
    <g
       id="g7422"
       transform="matrix(0.53936829,0,0,0.54627932,113.31514,89.185499)"
       style="fill:#ffffff" />
    <g
       id="g7424"
       transform="matrix(0.53936829,0,0,0.54627932,113.31514,89.185499)"
       style="fill:#ffffff" />
    <g
       id="g7426"
       transform="matrix(0.53936829,0,0,0.54627932,113.31514,89.185499)"
       style="fill:#ffffff" />
    <g
       id="g7428"
       transform="matrix(0.53936829,0,0,0.54627932,113.31514,89.185499)"
       style="fill:#ffffff" />
    <g
       id="g7430"
       transform="matrix(0.53936829,0,0,0.54627932,113.31514,89.185499)"
       style="fill:#ffffff" />
    <g
       id="g7432"
       transform="matrix(0.53936829,0,0,0.54627932,113.31514,89.185499)"
       style="fill:#ffffff" />
    <g
       id="g7434"
       transform="matrix(0.53936829,0,0,0.54627932,113.31514,89.185499)"
       style="fill:#ffffff" />
    <g
       id="g7436"
       transform="matrix(0.53936829,0,0,0.54627932,113.31514,89.185499)"
       style="fill:#ffffff" />
  </g>
</svg>
