<?xml version="1.0" encoding="UTF-8" standalone="no"?>
<svg
   xmlns:dc="http://purl.org/dc/elements/1.1/"
   xmlns:cc="http://creativecommons.org/ns#"
   xmlns:rdf="http://www.w3.org/1999/02/22-rdf-syntax-ns#"
   xmlns:svg="http://www.w3.org/2000/svg"
   xmlns="http://www.w3.org/2000/svg"
   xmlns:sodipodi="http://sodipodi.sourceforge.net/DTD/sodipodi-0.dtd"
   xmlns:inkscape="http://www.inkscape.org/namespaces/inkscape"
   width="31.592833mm"
   height="30mm"
   viewBox="0 0 31.59283 29.999998"
   version="1.1"
   id="svg8"
   inkscape:version="1.0.2 (e86c8708, 2021-01-15)"
   sodipodi:docname="work_in_progress.svg">
  <defs
     id="defs2">
    <marker
       style="overflow:visible"
       id="TriangleOutL"
       refX="0"
       refY="0"
       orient="auto"
       inkscape:stockid="TriangleOutL"
       inkscape:isstock="true">
      <path
         transform="scale(0.8)"
         style="fill:#ffffff;fill-opacity:1;fill-rule:evenodd;stroke:#ffffff;stroke-width:1pt;stroke-opacity:1"
         d="M 5.77,0 -2.88,5 V -5 Z"
         id="path1132" />
    </marker>
    <marker
       style="overflow:visible"
       id="TriangleOutM"
       refX="0"
       refY="0"
       orient="auto"
       inkscape:stockid="TriangleOutM"
       inkscape:isstock="true">
      <path
         transform="scale(0.4)"
         style="fill:#ffffff;fill-opacity:1;fill-rule:evenodd;stroke:#ffffff;stroke-width:1pt;stroke-opacity:1"
         d="M 5.77,0 -2.88,5 V -5 Z"
         id="path1135" />
    </marker>
    <marker
       style="overflow:visible"
       id="TriangleOutS"
       refX="0"
       refY="0"
       orient="auto"
       inkscape:stockid="TriangleOutS"
       inkscape:isstock="true">
      <path
         transform="scale(0.2)"
         style="fill:#ffffff;fill-opacity:1;fill-rule:evenodd;stroke:#ffffff;stroke-width:1pt;stroke-opacity:1"
         d="M 5.77,0 -2.88,5 V -5 Z"
         id="path1361" />
    </marker>
    <clipPath
       clipPathUnits="userSpaceOnUse"
       id="clipPath945">
      <rect
         style="fill:#487ed6;fill-opacity:1;stroke:#ffffff;stroke-width:3.74999;stroke-miterlimit:4;stroke-dasharray:none;stroke-dashoffset:0;stroke-opacity:1"
         id="rect947"
         width="45.357143"
         height="97.139877"
         x="111.88095"
         y="129.26785" />
    </clipPath>
    <clipPath
       clipPathUnits="userSpaceOnUse"
       id="clipPath945-9">
      <rect
         style="fill:#487ed6;fill-opacity:1;stroke:#ffffff;stroke-width:3.74999;stroke-miterlimit:4;stroke-dasharray:none;stroke-dashoffset:0;stroke-opacity:1"
         id="rect947-4"
         width="45.357143"
         height="97.139877"
         x="111.88095"
         y="129.26785" />
    </clipPath>
    <marker
       style="overflow:visible"
       id="TriangleOutS-1"
       refX="0"
       refY="0"
       orient="auto"
       inkscape:stockid="TriangleOutS"
       inkscape:isstock="true">
      <path
         transform="scale(0.2)"
         style="fill:#ffffff;fill-opacity:1;fill-rule:evenodd;stroke:#ffffff;stroke-width:1pt;stroke-opacity:1"
         d="M 5.77,0 -2.88,5 V -5 Z"
         id="path1361-8" />
    </marker>
    <clipPath
       clipPathUnits="userSpaceOnUse"
       id="clipPath945-3">
      <rect
         style="fill:#487ed6;fill-opacity:1;stroke:#ffffff;stroke-width:3.74999;stroke-miterlimit:4;stroke-dasharray:none;stroke-dashoffset:0;stroke-opacity:1"
         id="rect947-8"
         width="45.357143"
         height="97.139877"
         x="111.88095"
         y="129.26785" />
    </clipPath>
    <marker
       style="overflow:visible"
       id="TriangleOutS-6"
       refX="0"
       refY="0"
       orient="auto"
       inkscape:stockid="TriangleOutS"
       inkscape:isstock="true">
      <path
         transform="scale(0.2)"
         style="fill:#ffffff;fill-opacity:1;fill-rule:evenodd;stroke:#ffffff;stroke-width:1pt;stroke-opacity:1"
         d="M 5.77,0 -2.88,5 V -5 Z"
         id="path1361-4" />
    </marker>
    <marker
       style="overflow:visible"
       id="TriangleOutS-1-6"
       refX="0"
       refY="0"
       orient="auto"
       inkscape:stockid="TriangleOutS"
       inkscape:isstock="true">
      <path
         transform="scale(0.2)"
         style="fill:#ffffff;fill-opacity:1;fill-rule:evenodd;stroke:#ffffff;stroke-width:1pt;stroke-opacity:1"
         d="M 5.77,0 -2.88,5 V -5 Z"
         id="path1361-8-2" />
    </marker>
    <marker
       style="overflow:visible"
       id="TriangleOutS-1-6-4"
       refX="0"
       refY="0"
       orient="auto"
       inkscape:stockid="TriangleOutS"
       inkscape:isstock="true">
      <path
         transform="scale(0.2)"
         style="fill:#ffffff;fill-opacity:1;fill-rule:evenodd;stroke:#ffffff;stroke-width:1pt;stroke-opacity:1"
         d="M 5.77,0 -2.88,5 V -5 Z"
         id="path1361-8-2-8" />
    </marker>
    <clipPath
       clipPathUnits="userSpaceOnUse"
       id="clipPath945-3-5">
      <rect
         style="fill:#487ed6;fill-opacity:1;stroke:#ffffff;stroke-width:3.74999;stroke-miterlimit:4;stroke-dasharray:none;stroke-dashoffset:0;stroke-opacity:1"
         id="rect947-8-4"
         width="45.357143"
         height="97.139877"
         x="111.88095"
         y="129.26785" />
    </clipPath>
  </defs>
  <sodipodi:namedview
     id="base"
     pagecolor="#ffffff"
     bordercolor="#666666"
     borderopacity="1.0"
     inkscape:pageopacity="1"
     inkscape:pageshadow="2"
     inkscape:zoom="2.56"
     inkscape:cx="41.845108"
     inkscape:cy="98.482362"
     inkscape:document-units="mm"
     inkscape:current-layer="g7404"
     inkscape:document-rotation="0"
     showgrid="false"
     inkscape:pagecheckerboard="false"
     inkscape:window-width="1495"
     inkscape:window-height="741"
     inkscape:window-x="305"
     inkscape:window-y="75"
     inkscape:window-maximized="0"
     showguides="true"
     inkscape:guide-bbox="true" />
  <metadata
     id="metadata5">
    <rdf:RDF>
      <cc:Work
         rdf:about="">
        <dc:format>image/svg+xml</dc:format>
        <dc:type
           rdf:resource="http://purl.org/dc/dcmitype/StillImage" />
        <dc:title />
      </cc:Work>
    </rdf:RDF>
  </metadata>
  <g
     inkscape:label="Layer 1"
     inkscape:groupmode="layer"
     id="layer1"
     transform="translate(-71.190766,-88.592544)"
     style="display:inline">
    <g
       id="g4691"
       transform="matrix(0.04964598,0,0,0.04964598,74.442586,87.480541)" />
    <g
       id="g7404"
       transform="matrix(1,0,0,0.97772419,0.91958896,2.2825612)">
      <g
         id="g4665"
         transform="matrix(0.05336465,0,0,0.05336465,70.271177,87.821745)"
         style="fill:#333333">
        <g
           id="g4663"
           style="fill:#333333">
          <g
             id="g4643"
             style="fill:#333333">
            <circle
               cx="503.44101"
               cy="93.852997"
               r="21.216"
               id="circle4639"
               style="fill:#333333" />
            <path
               d="m 503.441,115.569 c -11.975,0 -21.717,-9.742 -21.717,-21.716 0,-11.975 9.742,-21.716 21.717,-21.716 11.974,0 21.715,9.742 21.715,21.716 0,11.974 -9.741,21.716 -21.715,21.716 z m 0,-42.432 c -11.423,0 -20.717,9.293 -20.717,20.716 0,11.423 9.294,20.716 20.717,20.716 11.422,0 20.715,-9.293 20.715,-20.716 0,-11.423 -9.293,-20.716 -20.715,-20.716 z"
               id="path4641"
               style="fill:#333333" />
          </g>
          <g
             id="g4649"
             style="fill:#333333">
            <circle
               cx="440.20099"
               cy="93.852997"
               r="21.216"
               id="circle4645"
               style="fill:#333333" />
            <path
               d="m 440.201,115.569 c -11.975,0 -21.717,-9.742 -21.717,-21.716 0,-11.975 9.742,-21.716 21.717,-21.716 11.974,0 21.715,9.742 21.715,21.716 0,11.974 -9.741,21.716 -21.715,21.716 z m 0,-42.432 c -11.423,0 -20.717,9.293 -20.717,20.716 0,11.423 9.294,20.716 20.717,20.716 11.422,0 20.715,-9.293 20.715,-20.716 0,-11.423 -9.293,-20.716 -20.715,-20.716 z"
               id="path4647"
               style="fill:#333333" />
          </g>
          <g
             id="g4655"
             style="fill:#333333">
            <circle
               cx="376.961"
               cy="93.852997"
               r="21.216"
               id="circle4651"
               style="fill:#333333" />
            <path
               d="m 376.961,115.569 c -11.975,0 -21.717,-9.742 -21.717,-21.716 0,-11.975 9.742,-21.716 21.717,-21.716 11.975,0 21.717,9.742 21.717,21.716 0,11.974 -9.742,21.716 -21.717,21.716 z m 0,-42.432 c -11.423,0 -20.717,9.293 -20.717,20.716 0,11.423 9.294,20.716 20.717,20.716 11.423,0 20.717,-9.293 20.717,-20.716 0,-11.423 -9.294,-20.716 -20.717,-20.716 z"
               id="path4653"
               style="fill:#333333" />
          </g>
          <g
             id="g4661"
             style="fill:#333333">
            <path
               d="M 591.518,524.858 V 67.16 c 0,-32.058 -26.082,-58.14 -58.141,-58.14 H 58.64 C 26.582,9.02 0.5,35.102 0.5,67.16 v 457.698 c 0,32.058 26.082,58.14 58.14,58.14 h 474.737 c 32.059,0 58.141,-26.082 58.141,-58.14 z M 43.34,67.16 c 0,-8.45 6.85,-15.3 15.3,-15.3 h 474.737 c 8.449,0 15.301,6.85 15.301,15.3 v 65.484 H 43.34 Z m 0,457.698 V 175.484 h 505.338 v 349.374 c 0,8.449 -6.852,15.3 -15.301,15.3 H 58.64 c -8.45,0 -15.3,-6.851 -15.3,-15.3 z"
               id="path4657"
               style="fill:#333333" />
            <path
               d="M 533.377,583.498 H 58.64 C 26.306,583.498 0,557.192 0,524.858 V 67.16 C 0,34.826 26.306,8.52 58.64,8.52 h 474.737 c 32.335,0 58.641,26.306 58.641,58.64 v 457.698 c 0,32.334 -26.306,58.64 -58.641,58.64 z M 58.64,9.52 C 26.857,9.52 1,35.377 1,67.16 v 457.698 c 0,31.782 25.857,57.64 57.64,57.64 h 474.737 c 31.783,0 57.641,-25.857 57.641,-57.64 V 67.16 c 0,-31.783 -25.857,-57.64 -57.641,-57.64 H 58.64 Z M 533.377,540.658 H 58.64 c -8.712,0 -15.8,-7.088 -15.8,-15.8 V 174.984 h 506.338 v 349.874 c 0,8.712 -7.088,15.8 -15.801,15.8 z M 43.84,175.984 v 348.874 c 0,8.161 6.64,14.8 14.8,14.8 h 474.737 c 8.161,0 14.801,-6.639 14.801,-14.8 V 175.984 Z m 505.338,-42.84 H 42.84 V 67.16 c 0,-8.712 7.088,-15.8 15.8,-15.8 h 474.737 c 8.713,0 15.801,7.088 15.801,15.8 z m -505.338,-1 H 548.178 V 67.16 c 0,-8.161 -6.64,-14.8 -14.801,-14.8 H 58.64 c -8.161,0 -14.8,6.639 -14.8,14.8 z"
               id="path4659"
               style="fill:#333333" />
          </g>
        </g>
      </g>
      <path
         d="m 87.747471,106.744 c 0.46732,0 0.906557,0.18568 1.236605,0.52325 l 0.323606,0.33097 c 0.660921,-0.29972 1.176972,-0.90051 1.348272,-1.63292 0.09457,-0.40414 0.08821,-0.79543 0.0035,-1.15564 -0.04316,-0.18382 -0.271406,-0.24515 -0.40207,-0.11162 l -1.138153,1.16409 h -1.24883 v -1.26217 l 1.138154,-1.16408 c 0.130697,-0.13368 0.07062,-0.36715 -0.109088,-0.41125 -0.352184,-0.0866 -0.734761,-0.0931 -1.129893,0.004 -0.913496,0.22353 -1.625296,1.01744 -1.770828,1.96662 -0.02379,0.14064 -0.02876,0.2775 -0.0271,0.41266 l 1.367436,1.39995 c 0.134133,-0.0466 0.271241,-0.0636 0.408348,-0.0636 z m 0.862287,0.9208 c -0.382578,-0.3913 -0.950995,-0.46581 -1.41055,-0.23485 l -1.775949,-1.80272 v -1.04768 l -2.099554,-1.62178 -1.057209,1.06609 1.585815,2.14739 1.024833,1.3e-4 1.762569,1.80103 c -0.225815,0.47003 -0.152817,1.05139 0.229777,1.44269 l 1.932713,1.97843 c 0.241507,0.24499 0.631187,0.24499 0.870712,-2e-5 l 0.871373,-0.89123 c 0.239524,-0.24498 0.239524,-0.64336 -2.6e-5,-0.89054 z m -2.578602,0.47983 -0.97792,-0.99852 -2.459667,2.5157 c -0.435604,0.44554 -0.435604,1.16714 0,1.61266 0.217389,0.22217 0.502341,0.33368 0.787953,0.33368 0.285612,0 0.570563,-0.11135 0.788282,-0.33419 l 1.967402,-2.01223 c -0.145696,-0.35176 -0.193601,-0.73866 -0.106053,-1.1171 z m -2.707451,2.78771 c -0.218875,0 -0.396453,-0.18163 -0.396453,-0.40548 0,-0.22404 0.177578,-0.4055 0.396453,-0.4055 0.218876,0 0.396454,0.18079 0.396454,0.4055 0,0.2247 -0.177578,0.40548 -0.396454,0.40548 z"
         id="path975"
         style="fill:#333333;fill-opacity:1;stroke-width:0.016706" />
    </g>
    <g
       id="g7408"
       transform="matrix(0.53936829,0,0,0.54627932,113.31514,89.185499)"
       style="fill:#ffffff" />
    <g
       id="g7410"
       transform="matrix(0.53936829,0,0,0.54627932,113.31514,89.185499)"
       style="fill:#ffffff" />
    <g
       id="g7412"
       transform="matrix(0.53936829,0,0,0.54627932,113.31514,89.185499)"
       style="fill:#ffffff" />
    <g
       id="g7414"
       transform="matrix(0.53936829,0,0,0.54627932,113.31514,89.185499)"
       style="fill:#ffffff" />
    <g
       id="g7416"
       transform="matrix(0.53936829,0,0,0.54627932,113.31514,89.185499)"
       style="fill:#ffffff" />
    <g
       id="g7418"
       transform="matrix(0.53936829,0,0,0.54627932,113.31514,89.185499)"
       style="fill:#ffffff" />
    <g
       id="g7420"
       transform="matrix(0.53936829,0,0,0.54627932,113.31514,89.185499)"
       style="fill:#ffffff" />
    <g
       id="g7422"
       transform="matrix(0.53936829,0,0,0.54627932,113.31514,89.185499)"
       style="fill:#ffffff" />
    <g
       id="g7424"
       transform="matrix(0.53936829,0,0,0.54627932,113.31514,89.185499)"
       style="fill:#ffffff" />
    <g
       id="g7426"
       transform="matrix(0.53936829,0,0,0.54627932,113.31514,89.185499)"
       style="fill:#ffffff" />
    <g
       id="g7428"
       transform="matrix(0.53936829,0,0,0.54627932,113.31514,89.185499)"
       style="fill:#ffffff" />
    <g
       id="g7430"
       transform="matrix(0.53936829,0,0,0.54627932,113.31514,89.185499)"
       style="fill:#ffffff" />
    <g
       id="g7432"
       transform="matrix(0.53936829,0,0,0.54627932,113.31514,89.185499)"
       style="fill:#ffffff" />
    <g
       id="g7434"
       transform="matrix(0.53936829,0,0,0.54627932,113.31514,89.185499)"
       style="fill:#ffffff" />
    <g
       id="g7436"
       transform="matrix(0.53936829,0,0,0.54627932,113.31514,89.185499)"
       style="fill:#ffffff" />
  </g>
</svg>
